<svg width="39" height="39" viewBox="0 0 39 39" fill="none" xmlns="http://www.w3.org/2000/svg">
<g id="material-symbols-light:cleaning-bucket-outline">
<path id="Vector" d="M15.1366 35.75C14.4617 35.75 13.8767 35.5361 13.3816 35.1081C12.8876 34.6802 12.5968 34.1369 12.509 33.4783L10 14.625H29.032L26.5198 33.4783C26.432 34.1369 26.1395 34.6802 25.6422 35.1081C25.1461 35.5361 24.5665 35.75 23.9035 35.75H15.1366ZM15.0944 34.125H23.9068C24.1559 34.125 24.3748 34.0416 24.5632 33.8748C24.7507 33.7079 24.865 33.4999 24.9061 33.2508L27.1373 16.25H11.8216L14.0934 33.2508C14.1356 33.4999 14.2505 33.7079 14.4379 33.8748C14.6253 34.0416 14.8452 34.125 15.0944 34.125ZM19.4965 25.1875C20.6232 25.1875 21.5825 24.7921 22.3744 24.0013C23.1663 23.2126 23.5623 22.2538 23.5623 21.125V18.6875H21.9373V21.125C21.9373 21.7934 21.6984 22.3671 21.2206 22.8459C20.7418 23.3236 20.1682 23.5625 19.4998 23.5625C18.8313 23.5625 18.2577 23.3236 17.7789 22.8459C17.3 22.3681 17.0612 21.7945 17.0623 21.125V18.6875H15.4373V21.125C15.4373 22.2538 15.8321 23.2126 16.6219 24.0013C17.4105 24.7921 18.3688 25.1875 19.4965 25.1875ZM24.378 11.3425C23.9284 11.3425 23.5444 11.1854 23.2259 10.8713C22.9074 10.5571 22.7487 10.1741 22.7498 9.72239C22.7508 9.27064 22.9085 8.8866 23.2226 8.57026C23.5368 8.25393 23.9198 8.09522 24.3715 8.09414C24.8232 8.09306 25.2073 8.25014 25.5236 8.56539C25.84 8.88064 25.9987 9.26414 25.9998 9.71589C26.0008 10.1676 25.8432 10.5517 25.5269 10.868C25.2105 11.1843 24.8276 11.3414 24.378 11.3425ZM16.2498 9.71751C15.3614 9.71751 14.5977 9.39793 13.9585 8.75876C13.3193 8.1196 12.9998 7.35043 12.9998 6.45126C12.9998 5.5521 13.3193 4.78835 13.9585 4.16001C14.5977 3.53168 15.3668 3.21751 16.266 3.21751C17.1652 3.21751 17.9289 3.53168 18.5573 4.16001C19.1856 4.78835 19.4998 5.55751 19.4998 6.46751C19.4998 7.35476 19.1856 8.11851 18.5573 8.75876C17.9289 9.39793 17.1598 9.71751 16.2498 9.71751ZM23.9068 34.125H14.1568H24.8444H23.9068Z" fill="#0F42FF"/>
</g>
</svg>
