<svg width="39" height="39" viewBox="0 0 39 39" fill="none" xmlns="http://www.w3.org/2000/svg">
<g id="material-symbols-light:cleaning-outline">
<path id="Vector" d="M16.0314 13.1885L17.8416 9.74997V8.49872H15.5926V6.49997H23.4674C23.8032 6.49997 24.0957 6.62455 24.3449 6.87372C24.594 7.12289 24.7186 7.41539 24.7186 7.75122V8.87572L23.2805 11.7503H20.1556V10.062L17.1559 13.1885H16.0314ZM14.2812 34.125V24.6805C14.2812 24.5071 14.3127 24.3089 14.3755 24.0857C14.4394 23.8615 14.5077 23.6665 14.5802 23.5007L20.154 13H23.2805C23.5134 13.234 23.697 13.4972 23.8314 13.7897C23.9646 14.0822 24.0312 14.3921 24.0312 14.7192V34.125H14.2812ZM15.9062 32.5H22.4062V14.625H21.1371L15.9046 24.505L15.9062 32.5Z" fill="#0F42FF"/>
</g>
</svg>
