<svg width="39" height="39" viewBox="0 0 39 39" fill="none" xmlns="http://www.w3.org/2000/svg">
<g id="healthicons:cleaning-outline">
<g id="Group">
<path id="Vector" fill-rule="evenodd" clip-rule="evenodd" d="M17.9301 20.8016L9.21035 4.4005C9.16025 4.30629 9.1292 4.20313 9.11898 4.09691C9.10875 3.9907 9.11954 3.88351 9.15074 3.78147C9.21375 3.57538 9.35604 3.40277 9.54631 3.30159C9.73659 3.20042 9.95926 3.17898 10.1653 3.24199C10.2674 3.27319 10.3623 3.32418 10.4446 3.39205C10.527 3.45992 10.5951 3.54335 10.6452 3.63756L19.3658 20.0387L20.6024 19.3806C20.9793 19.1802 21.392 19.056 21.8169 19.0152C22.2418 18.9743 22.6706 19.0175 23.0788 19.1424C23.4869 19.2673 23.8665 19.4713 24.1958 19.7429C24.5252 20.0145 24.7977 20.3483 24.998 20.7252L25.5245 21.7149L31.1056 29.8846L19.5283 36.0401L15.8761 26.8442L15.3504 25.8546C15.15 25.4777 15.0258 25.0651 14.9849 24.6402C14.9439 24.2153 14.9871 23.7866 15.1119 23.3784C15.2367 22.9702 15.4407 22.5906 15.7122 22.2613C15.9837 21.9319 16.3174 21.6593 16.6943 21.4589L17.9301 20.8016ZM17.4564 22.8938L21.3645 20.8162C21.553 20.716 21.7593 20.6539 21.9717 20.6335C22.1841 20.613 22.3985 20.6346 22.6026 20.697C22.8067 20.7594 22.9965 20.8614 23.1612 20.9971C23.3258 21.1329 23.4622 21.2997 23.5623 21.4882L24.0888 22.477L17.3102 26.0812L16.7845 25.0916C16.6843 24.9032 16.6222 24.6969 16.6017 24.4844C16.5812 24.272 16.6028 24.0576 16.6652 23.8535C16.7276 23.6495 16.8296 23.4597 16.9654 23.295C17.1011 23.1303 17.268 22.994 17.4564 22.8938ZM18.1308 28.1198L20.3676 33.7529L21.8577 32.9607L20.0987 29.536L21.5449 28.7934L23.2934 32.1978L28.7388 29.302L25.3198 24.297L18.1308 28.1198Z" fill="#0F42FF"/>
<path id="Vector_2" d="M13.2945 28.6252C13.3765 28.5569 13.4711 28.5054 13.573 28.4737C13.6749 28.442 13.782 28.4307 13.8883 28.4404C13.9945 28.4501 14.0979 28.4806 14.1923 28.5302C14.2868 28.5799 14.3706 28.6476 14.4389 28.7296C14.5071 28.8116 14.5586 28.9062 14.5903 29.0081C14.622 29.11 14.6334 29.2172 14.6237 29.3234C14.614 29.4297 14.5834 29.533 14.5338 29.6275C14.4842 29.7219 14.4165 29.8057 14.3345 29.874L14.3336 29.8748L14.332 29.8764L14.3296 29.8781L14.3215 29.8846L14.2971 29.9049L14.2134 29.9691C14.1424 30.0232 14.043 30.0936 13.9152 30.1803C13.6593 30.3509 13.2896 30.5736 12.8232 30.7962C11.6108 31.3778 10.2841 31.6823 8.93945 31.6875C8.72396 31.6875 8.5173 31.6019 8.36493 31.4495C8.21256 31.2972 8.12695 31.0905 8.12695 30.875C8.12695 30.6595 8.21256 30.4529 8.36493 30.3005C8.5173 30.1481 8.72396 30.0625 8.93945 30.0625C10.0424 30.0572 11.1304 29.8066 12.1245 29.3288C12.4321 29.1826 12.7291 29.0151 13.0133 28.8275C13.1068 28.7657 13.1981 28.7006 13.2871 28.6325L13.2953 28.6244L13.2945 28.6252ZM15.8904 33.9885C16.0697 33.8689 16.1941 33.683 16.2363 33.4716C16.2785 33.2603 16.235 33.0409 16.1155 32.8616C15.9959 32.6823 15.8099 32.5578 15.5986 32.5156C15.3873 32.4734 15.1678 32.5169 14.9885 32.6365L14.9869 32.6381L14.9706 32.6479L14.9008 32.6926C14.8363 32.7332 14.7418 32.7893 14.6172 32.8608C14.2823 33.052 13.9379 33.2261 13.5853 33.3824C12.7176 33.7683 11.6199 34.125 10.5645 34.125C10.349 34.125 10.1423 34.2106 9.98993 34.363C9.83756 34.5154 9.75195 34.722 9.75195 34.9375C9.75195 35.153 9.83756 35.3597 9.98993 35.512C10.1423 35.6644 10.349 35.75 10.5645 35.75C11.9473 35.75 13.2863 35.2942 14.2459 34.8676C14.7674 34.636 15.273 34.3703 15.7596 34.0722L15.8522 34.0137L15.8782 33.9966L15.8863 33.9918L15.8904 33.9885Z" fill="#0F42FF"/>
</g>
</g>
</svg>
