<svg width="28" height="28" viewBox="0 0 28 28" fill="none" xmlns="http://www.w3.org/2000/svg">
<g id="Frame">
<path id="Vector" d="M14 1.75C7.2345 1.75 1.75 7.2345 1.75 14C1.75 19.7453 5.705 24.5656 11.0408 25.8895V17.7432H8.51463V14H11.0408V12.3874C11.0408 8.218 12.9272 6.28513 17.0214 6.28513C17.7975 6.28513 19.1362 6.43738 19.684 6.58963V9.98288C19.3953 9.95225 18.893 9.93738 18.2691 9.93738C16.2601 9.93738 15.484 10.6986 15.484 12.6761V14H19.4854L18.7976 17.7432H15.484V26.1599C21.5495 25.4275 26.25 20.2624 26.25 14C26.25 7.2345 20.7655 1.75 14 1.75Z" fill="#6A6161"/>
</g>
</svg>
