<svg width="39" height="39" viewBox="0 0 39 39" fill="none" xmlns="http://www.w3.org/2000/svg">
<g id="material-symbols-light:local-laundry-service-outline">
<path id="Vector" d="M10.751 34.125C10.023 34.125 9.40333 33.8693 8.892 33.358C8.38067 32.8467 8.125 32.2275 8.125 31.5006V7.49937C8.125 6.77354 8.38067 6.15442 8.892 5.642C9.40333 5.13067 10.023 4.875 10.751 4.875H28.2506C28.9765 4.875 29.5956 5.13067 30.108 5.642C30.6193 6.15333 30.875 6.773 30.875 7.501V31.5006C30.875 32.2265 30.6193 32.8456 30.108 33.358C29.5967 33.8693 28.9775 34.125 28.2506 34.125H10.751ZM10.751 32.5H28.2506C28.4998 32.5 28.7289 32.396 28.938 32.188C29.1471 31.98 29.2511 31.7503 29.25 31.499V7.501C29.25 7.25075 29.146 7.02108 28.938 6.812C28.73 6.60292 28.5003 6.49892 28.249 6.5H10.751C10.5008 6.5 10.2711 6.604 10.062 6.812C9.85292 7.02 9.74892 7.24912 9.75 7.49937V31.5006C9.75 31.7498 9.854 31.9789 10.062 32.188C10.27 32.3971 10.4991 32.5011 10.7494 32.5M19.5 29.6237C21.3937 29.6237 23.0132 28.9521 24.3587 27.6087C25.7021 26.2633 26.3737 24.6437 26.3737 22.75C26.3737 20.8563 25.7021 19.2368 24.3587 17.8913C23.0122 16.5479 21.3926 15.8763 19.5 15.8763C17.6074 15.8763 15.9878 16.5479 14.6413 17.8913C13.2979 19.2378 12.6262 20.8574 12.6262 22.75C12.6262 24.6426 13.2979 26.2622 14.6413 27.6087C15.9868 28.9521 17.6063 29.6237 19.5 29.6237ZM19.5 28.1125C18.7958 28.1125 18.1171 27.9787 17.4639 27.7111C16.8106 27.4435 16.237 27.0627 15.743 26.5688L23.3188 18.9946C23.8128 19.4875 24.1935 20.0606 24.4611 20.7139C24.7287 21.3671 24.8625 22.0458 24.8625 22.75C24.8625 24.2396 24.3414 25.506 23.2993 26.5492C22.2571 27.5925 20.9907 28.1136 19.5 28.1125ZM13 11.375C13.4604 11.375 13.8466 11.219 14.1586 10.907C14.4706 10.595 14.6261 10.2093 14.625 9.75C14.6239 9.29067 14.4679 8.905 14.157 8.593C13.8461 8.281 13.4604 8.125 13 8.125C12.5396 8.125 12.1539 8.281 11.843 8.593C11.5321 8.905 11.3761 9.29067 11.375 9.75C11.3739 10.2093 11.5299 10.5955 11.843 10.9086C12.1561 11.2217 12.5417 11.3772 13 11.375ZM17.875 11.375C18.3354 11.375 18.7216 11.219 19.0336 10.907C19.3456 10.595 19.5011 10.2093 19.5 9.75C19.4989 9.29067 19.3429 8.905 19.032 8.593C18.7211 8.281 18.3354 8.125 17.875 8.125C17.4146 8.125 17.0289 8.281 16.718 8.593C16.4071 8.905 16.2511 9.29067 16.25 9.75C16.2489 10.2093 16.4049 10.5955 16.718 10.9086C17.0311 11.2217 17.4167 11.3772 17.875 11.375Z" fill="#0F42FF"/>
</g>
</svg>
