<svg width="133" height="24" viewBox="0 0 133 24" fill="none" xmlns="http://www.w3.org/2000/svg">
<path d="M0.346885 12.0683C0.346885 9.93834 0.82717 8.02765 1.78774 6.33621C2.74831 4.62389 4.05343 3.28744 5.7031 2.32687C7.37366 1.36631 9.22171 0.88602 11.2473 0.88602C13.6278 0.88602 15.7056 1.46027 17.4805 2.60878C19.2555 3.75729 20.5502 5.38608 21.3646 7.49516H17.9504C17.3448 6.17959 16.4677 5.16682 15.3192 4.45683C14.1916 3.74685 12.8343 3.39185 11.2473 3.39185C9.72288 3.39185 8.35511 3.74685 7.14396 4.45683C5.93281 5.16682 4.98268 6.17959 4.29357 7.49516C3.60447 8.78984 3.25992 10.3142 3.25992 12.0683C3.25992 13.8015 3.60447 15.3259 4.29357 16.6414C4.98268 17.9361 5.93281 18.9385 7.14396 19.6484C8.35511 20.3584 9.72288 20.7134 11.2473 20.7134C12.8343 20.7134 14.1916 20.3689 15.3192 19.6798C16.4677 18.9698 17.3448 17.957 17.9504 16.6414H21.3646C20.5502 18.7296 19.2555 20.348 17.4805 21.4965C15.7056 22.6241 13.6278 23.1879 11.2473 23.1879C9.22171 23.1879 7.37366 22.7181 5.7031 21.7784C4.05343 20.8178 2.74831 19.4918 1.78774 17.8004C0.82717 16.109 0.346885 14.1983 0.346885 12.0683ZM28.458 20.6821H36.1008V23H25.6076V1.16793H28.458V20.6821ZM41.9782 3.48582V10.7841H49.9342V13.1333H41.9782V20.6508H50.8739V23H39.1278V1.1366H50.8739V3.48582H41.9782ZM68.092 18.1449H58.5698L56.8157 23H53.8087L61.7021 1.29322H64.991L72.8531 23H69.8461L68.092 18.1449ZM67.2776 15.8271L63.3309 4.80138L59.3842 15.8271H67.2776ZM93.4582 23H90.6078L79.1436 5.61578V23H76.2932V1.1366H79.1436L90.6078 18.4895V1.1366H93.4582V23Z" fill="#0A0A0A"/>
<path d="M111.222 18.1449H101.7L99.9459 23H96.9389L104.832 1.29322H108.121L115.983 23H112.976L111.222 18.1449ZM110.408 15.8271L106.461 4.80138L102.514 15.8271H110.408ZM121.835 20.5255H132.485V23H118.452V20.7447L129.04 3.64244H118.578V1.16793H132.422V3.42318L121.835 20.5255Z" fill="#0F42FF"/>
</svg>
