<svg width="28" height="28" viewBox="0 0 28 28" fill="none" xmlns="http://www.w3.org/2000/svg">
<g id="Frame">
<path id="Vector" d="M22.2565 5.74936C19.8275 3.31919 16.5142 2.09303 13.0352 2.37303C8.358 2.74869 4.25833 6.00136 2.88633 10.4884C1.90633 13.6944 2.31817 17.0415 3.91417 19.8065L2.40217 24.8267C2.2575 25.3085 2.69733 25.7624 3.18383 25.6329L8.4385 24.2247C10.1407 25.1534 12.0563 25.6422 14.007 25.6434H14.0117C18.9058 25.6434 23.4278 22.6497 24.9923 18.0122C26.516 13.4902 25.389 8.88536 22.2565 5.74936ZM19.7143 18.1464C19.4717 18.8265 18.2828 19.4822 17.7485 19.53C17.2142 19.579 16.7137 19.7715 14.2543 18.802C11.2945 17.6354 9.4255 14.6009 9.28083 14.4072C9.135 14.2124 8.092 12.8287 8.092 11.396C8.092 9.96336 8.8445 9.25869 9.11167 8.96819C9.37883 8.67653 9.69383 8.60419 9.88867 8.60419C10.0823 8.60419 10.2772 8.60419 10.4463 8.61119C10.654 8.61936 10.8838 8.62986 11.102 9.11403C11.361 9.69036 11.9268 11.13 11.9992 11.2759C12.0715 11.4217 12.1205 11.592 12.0237 11.7857C11.9268 11.9794 11.8778 12.1007 11.7332 12.271C11.5873 12.4414 11.4275 12.6502 11.2968 12.7809C11.151 12.9255 10.9993 13.0842 11.1685 13.3747C11.3388 13.6664 11.9222 14.6195 12.7878 15.3907C13.9008 16.3824 14.8377 16.6892 15.1293 16.8362C15.421 16.982 15.5902 16.9575 15.7605 16.7627C15.9308 16.569 16.4885 15.9134 16.6822 15.6217C16.8758 15.33 17.0707 15.379 17.3378 15.4759C17.605 15.5727 19.0365 16.2774 19.327 16.4232C19.6187 16.569 19.8123 16.6414 19.8847 16.7627C19.957 16.8829 19.957 17.4662 19.7143 18.1464Z" fill="#6A6161"/>
</g>
</svg>
